<?xml version="1.0" encoding="UTF-8"?>
<svg id="Layer_2" xmlns="http://www.w3.org/2000/svg" width="2.5in" height=".7in" version="1.1" viewBox="0 0 179.8 49.3">
  <!-- Generator: Adobe Illustrator 29.2.1, SVG Export Plug-In . SVG Version: 2.1.0 Build 116)  -->
  <defs>
    <style>
      .st0 {
        fill: #003595;
      }
    </style>
  </defs>
  <path class="st0" d="M179.3,22.1c-.4-1.7-1.2-3.2-2.2-4.5-1-1.3-2.3-2.4-4-3.2-1.6-.8-3.6-1.3-5.9-1.3s-2.4.2-3.4.5c-1.1.3-2,.7-2.9,1.2s-1.7,1.1-2.4,1.9c-.3.3-.5.5-.7.8v-3.5h-11.7v34.2h12.1v-18.5c0-.9.1-1.7.3-2.5s.6-1.5,1-2.1,1-1.1,1.6-1.4,1.4-.5,2.3-.5,1.6.2,2.1.5c.6.3,1,.8,1.3,1.3.3.6.6,1.3.7,2.1.1.8.2,1.7.2,2.6v18.6h12.1v-21c0-1.7-.2-3.4-.7-5.1h.2Z"/>
  <path class="st0" d="M130.6,31.1c0,4-3.3,7.3-7.3,7.3s-7.3-3.2-7.3-7.3,3.3-7.3,7.3-7.3,7.3,3.2,7.3,7.3ZM123.3,12.9c-10.1,0-18.2,8.1-18.2,18.2s8.1,18.2,18.2,18.2,18.2-8.1,18.2-18.2-8.1-18.2-18.2-18.2Z"/>
  <path class="st0" d="M90.4,38.3c-4,0-7.3-3.2-7.3-7.3s3.3-7.3,7.3-7.3,4.8,1.3,6.1,3.3l7.3-8.4c-3.3-3.6-8.1-5.8-13.3-5.8-10.1,0-18.2,8.1-18.2,18.2s8.1,18.2,18.2,18.2,9.9-2.2,13.2-5.7l-7.1-8.6c-1.3,2.1-3.6,3.4-6.2,3.4Z"/>
  <path class="st0" d="M20.2,0L0,48.2h13.6l3.5-9.2h17.4l3.7,9.2h13.9L32.1.1h-11.9ZM31,28.7h-10.2l5.2-13.9,5,13.9Z"/>
  <rect class="st0" x="55.4" width="12.3" height="48.1"/>
</svg>