<?xml version="1.0" encoding="UTF-8"?>
<svg id="Layer_3" xmlns="http://www.w3.org/2000/svg" width="2.5in" height=".5in" version="1.1" viewBox="0 0 180 37.3">
  <!-- Generator: Adobe Illustrator 29.2.1, SVG Export Plug-In . SVG Version: 2.1.0 Build 116)  -->
  <defs>
    <style>
      .st0 {
        fill: #1f4fa3;
      }
    </style>
  </defs>
  <path class="st0" d="M34.8,25.2c-4.6,9-11.7,10.1-15.5,10.1s-4.8-1.3-4.8-2.7v-13.6c8,.2,9.2,4.2,9.2,8.3h1.5V9.6h-1.5c0,3.3-.9,7.7-9.2,8V4.7c0-1.8,1.3-3,3-3h3.7c5.4,0,8.4,3.2,9.4,5.6,1,2.4,1.4,3.9,3.2,3.9V0H0v1.8c3.3,0,4.4,1,4.4,3.1v28.6c0,1.2-1.7,2.2-4.3,2.2v1.3h33.4l3.2-11.8h-1.9Z"/>
  <path class="st0" d="M62.2,33.6l-7.4-11.4s4.5-5.5,6.1-7.5,3.1-1.7,3.7-1.7v-1.3h-9.4v1.1c.5,0,.9,0,2,.2,1.1,0,1.1,1.8.5,2.6-.6.8-3.8,4.9-3.8,4.9,0,0-3.2-5.1-3.7-5.9s.2-1.5.7-1.6,1.7-.2,1.7-.2v-1.1h-13.7v1.3c.6,0,1.5.2,2,.9.5.8,8,12.1,8,12.1l-5.8,7.2c-1.1,1.3-2.2,2.7-4.2,2.7v1h9.2v-.9c-1.4-.2-2.7-.5-2.7-1.5s1.9-3.8,4.4-6.8c0,0,3,4.3,3.5,5.1.5.7,1.3,2.5-.4,2.8-.6,0-1,.2-1.5.2v1.1h13.2v-1.3c-1.3-.2-1.9-1.3-2.4-2h0Z"/>
  <path class="st0" d="M78.3,11.7V3h-1.9c-2.3,4-5.8,8.7-9.3,8.7v2.2h3.1v17.7c0,2.7,2.6,5.6,6.4,5.6s7.1-1.5,8.5-6l-.9-.6c-2.3,2.1-3.1,2.6-4.1,2.6s-2.1-.8-2.1-2.2V14h5.6v-2.1h-5.4v-.2Z"/>
  <path class="st0" d="M98.8,14.9v-3.1h-11.1v1c2.7.9,3.3,1.8,3.3,3v16.8c0,1.8-1.7,3.4-3.3,3.4v1.1h14v-1.2c-1.8,0-2.9-1.5-2.9-2.7v-12.8c0-3.3,2.1-4.9,3.5-4.9,2.1,0,2.5,3.1,5,3.1s3.8-2.6,3.8-3.8c0-1.9-2.2-4.1-5.1-4.1s-5.8,2.8-7.2,4.3h0Z"/>
  <path class="st0" d="M123.8,10.6c-6.5,0-12,5-12,13.2s6.1,13.2,12,13.2,12.3-5,12.3-13.2-6.5-13.2-12.3-13.2ZM124,35c-1.2,0-4-1.2-4-11.1s2.5-11.2,4-11.2,4.1,2.1,4.1,11.1-2.9,11.1-4.1,11.1h0Z"/>
  <path class="st0" d="M138.5,11.6v1.4c1.3,0,2.7.9,2.7,2.9v17.3c0,1.1-1.4,2.7-2.7,2.7v1.3h13.6v-1c-1.7-.2-2.7-1.7-2.7-3v-14.1c0-2.3,2.3-4.5,5.3-4.5s3.7,2.1,3.7,3.4v14.9c0,2.1-2.6,3.3-3.7,3.3v1.1h14.2v-1c-1.8-.3-3.4-1.5-3.4-3.3v-15.6c0-3.1-4.1-6.6-7-6.6-4.7,0-6.8,1.6-9,3.8v-2.9h-11Z"/>
  <path class="st0" d="M175.7,28.5c.7,0,1.4.2,2.1.6s1.2.9,1.6,1.6.6,1.4.6,2.2-.2,1.5-.6,2.2-.9,1.2-1.6,1.6c-.7.4-1.4.6-2.2.6s-1.5-.2-2.2-.6-1.2-.9-1.6-1.6-.6-1.4-.6-2.2.2-1.5.6-2.2.9-1.2,1.6-1.6,1.4-.6,2.1-.6h.2ZM175.7,29.2c-.6,0-1.2.2-1.8.5s-1,.8-1.4,1.3-.5,1.2-.5,1.8.2,1.2.5,1.8c.3.6.8,1,1.3,1.3.6.3,1.2.5,1.8.5s1.2-.2,1.8-.5,1-.8,1.3-1.3c.3-.6.5-1.2.5-1.8s-.2-1.2-.5-1.8-.8-1-1.4-1.3c-.6-.3-1.2-.5-1.8-.5h.2ZM173.7,35.3v-4.7h1.6c.5,0,.9,0,1.2,0s.4.2.6.5c.1.2.2.4.2.7s-.1.6-.4.9-.6.4-1,.4c.2,0,.3.2.4.2.2.2.4.5.7.9l.6.9h-.9l-.4-.7c-.3-.6-.6-.9-.8-1.1-.1,0-.3-.2-.6-.2h-.4v2h-.8ZM174.5,32.6h.9c.4,0,.7,0,.9-.2.2,0,.2-.3.2-.5s0-.3-.1-.4-.2-.2-.3-.2h-1.7v1.4h.1Z"/>
</svg>