<?xml version="1.0" encoding="UTF-8"?>
<svg id="Layer_2" xmlns="http://www.w3.org/2000/svg" width="2.5in" height=".6in" version="1.1" viewBox="0 0 179.7 45.8">
  <!-- Generator: Adobe Illustrator 29.2.1, SVG Export Plug-In . SVG Version: 2.1.0 Build 116)  -->
  <defs>
    <style>
      .st0 {
        fill: #332a86;
      }
    </style>
  </defs>
  <g>
    <path class="st0" d="M162,6.1l-.6.5v.2h1.8c-.3,1.8-.5,3.5-.9,6-.6,3.8-1,5.2-1.4,5.5-.1,0-.3.2-.5.2s-.6-.2-.9-.3c-.2,0-.5,0-.6,0-.2.2-.4.5-.4.7,0,.4.5.6.9.6s1.4-.3,2.3-1.4c.7-.9,1.6-2.9,2.4-7.5.1-.9.3-1.7.7-4l2.1-.2.5-.5h-2.4c.6-3.8,1.1-5,2-5s1.1.2,1.6.7c.1,0,.4,0,.6,0,.2,0,.4-.5.4-.8s-.5-.9-1.2-.9c-1.2,0-2.4.7-3.3,1.7-.8,1-1.3,2.5-1.6,4.2h-1.3l-.2.2ZM152.7,11.5c0-3,1.5-4.7,2.2-5,.2,0,.5-.2.7-.2,1,0,1.6.8,1.6,2.4,0,2.7-1.4,5.1-2.2,5.4-.2,0-.4,0-.6,0-1.1,0-1.6-1.2-1.6-2.8M156.3,5.6c-.5,0-1.4.2-2.2.7-1.4.8-3,2.8-3,5.6s.7,3,2.6,3,2.2-.6,3.1-1.4c1.4-1.2,2.2-3.4,2.2-5.2s-.9-2.9-2.6-2.9M134.1,1.4l3.7,6.7v5.6l-1.2,1.2h3.9l-1.2-1.2v-5.6l3.8-6.6,1.2-1.2h-3.6l1.1,1.1-3.1,5.5-2.9-5.5,1.1-1.1h-4.1l1.2,1.2h.1ZM125.7,13.7V1.3h2.8l1.6,1.6V.2h-10.3v2.7l1.6-1.6h2.8v12.4l-1.1,1.2h3.9l-1.2-1.2h-.1ZM111.8.2l1.2,1.2v12.3l-1.2,1.2h3.9l-1.2-1.2V1.4l1.2-1.2h-3.9ZM107,10.8c0-1.4-.7-2.3-1.4-2.8l-3-2.2c-1.1-.8-1.6-1.8-1.6-2.5,0-1.5,1.3-2.1,2.1-2.1s.7.2.9.2l1.3,1.4,1.4-2-2.9-.5h-.7c-2.6,0-3.7,2.2-3.7,3.6s.6,2.4,1.9,3.3l3,2.2c.8.6,1,1.4,1,2.1,0,1.2-.8,2.6-2.4,2.6s-.7,0-1-.2l-1.4-1.6-1.3,2.3,2.8.5h.9c1.8,0,4.1-1.5,4.1-4.3M87.6,1.3h1.8c1.6,0,2.8,1.3,2.8,2.9s-1.3,2.7-2.8,2.7h-1.8V1.3ZM87.6,13.7v-5.7h2.2l3.5,6.8h2.4l-1.1-1.2-3.3-6c1.6-.5,2.8-2,2.8-3.4,0-2.5-2.3-4-4.7-4h-4.5l1.1,1.2v12.3l-1.1,1.2h3.9s-1.2-1.2-1.2-1.2ZM80.4,14.8v-2.7l-1.6,1.6h-4.4v-6.1h3.3l1.2,1.2v-3.4l-1.2,1.2h-3.3V1.4h4.4l1.6,1.6V.3h-8.8l1.1,1.2v12.3l-1.1,1.2h8.8v-.2ZM60.8.2h-4.1l1.2,1.2,4.1,13.5h.7l4.2-13.5,1.2-1.2h-3.5l1.1,1.1-3.1,10.1-3-10.1,1.1-1.1h.1ZM48.8.2l1.2,1.2v12.3l-1.2,1.2h3.9l-1.2-1.2V1.4l1.2-1.2h-3.9ZM34.6,13.6V2.6l7.9,12.3h.5V1.5l1.3-1.3h-3.8l1.3,1.3v9.3L35.2.2h-3l1.2,1.3v12.1l-1.2,1.3h3.8l-1.3-1.3h-.1ZM17.5,10.9c0,2.4,2,4.2,4.5,4.2s4.7-1.8,4.7-4.2V1.5l1.2-1.3h-3.8l1.3,1.3v9.4c0,1.7-1.3,3-3,3s-3.2-1.3-3.2-3V1.5l1.3-1.3h-4.2l1.3,1.3v9.4h0Z"/>
    <path class="st0" d="M166.8,43.7v-14.7l10.4,16.4h.8v-18l1.7-1.7h-5.1l1.7,1.7v12.5l-8.9-14.2h-4.1l1.7,1.7v16.3l-1.7,1.7h5.1l-1.7-1.7h.1ZM151.8,44.3c-3.9,0-5.3-4.7-5.3-8.8s1.4-8.8,5.3-8.8,5.3,4.7,5.3,8.8-1.4,8.8-5.3,8.8M143.9,35.5c0,5,2.8,10.3,7.9,10.3s7.9-5.3,7.9-10.3-2.8-10.3-7.9-10.3-7.9,5.3-7.9,10.3M136.1,43.8v-16.6h3.7l2.1,2.1v-3.6h-13.8v3.6l2.1-2.1h3.7v16.6l-1.5,1.6h5.3l-1.6-1.6ZM121.8,36.4v6.3c-.5.5-1.4,1.4-3.2,1.4-4.4,0-6.6-4.4-6.6-8.6s2.8-8.6,6.6-8.6,1.7.2,2.4.9l2.2,2.1v-3.4c-1.2-.6-2.3-1.1-4.6-1.1-5.4,0-9.1,4.8-9.1,10.1s3.8,10.1,9.1,10.1,4.3-.7,5.4-1.4v-7.8l1.5-1.6h-5.3l1.6,1.6ZM93.7,43.7v-14.7l10.5,16.4h.8v-18l1.7-1.7h-5.1l1.7,1.7v12.5l-8.9-14.2h-4.1l1.7,1.7v16.3l-1.7,1.7h5.1s-1.7-1.7-1.7-1.7ZM62.3,35.5h8.3v8.3l-1.6,1.6h5.3l-1.6-1.6v-16.5l1.6-1.6h-5.3l1.6,1.6v6.8h-8.3v-6.8l1.6-1.6h-5.3l1.5,1.6v16.5l-1.5,1.6h5.3l-1.6-1.6v-8.3ZM53.9,39.9c0-1.9-.9-3.1-1.8-3.8l-4-2.9c-1.4-1-2.2-2.4-2.2-3.4,0-2.1,1.8-2.8,2.8-2.8s1,.2,1.3.2l1.7,1.9,1.8-2.7-3.9-.7h-.9c-3.4,0-5,2.9-5,4.8s.8,3.2,2.5,4.5l4,2.9c1.1.8,1.4,1.9,1.4,2.9,0,1.7-1,3.5-3.3,3.5s-1,0-1.4-.3l-1.9-2.2-1.7,3.1,3.8.7s.6,0,1.2,0c2.4,0,5.5-2,5.5-5.7M32.4,30.1l2.7,8.1h-5.5l2.8-8.1ZM27.7,43.8l1.4-4.2h6.5l1.4,4.2-1.5,1.5h5.6l-1.6-1.6-6.1-18.1h-1l-6.2,18.1-1.6,1.6h4.7l-1.5-1.5h0ZM8.1,45.4l4.5-14.2,4.4,14.2h1l5.7-18.1,1.6-1.6h-4.7l1.5,1.5-4.2,13.6-4-13.6,1.5-1.5h-5.6l1.6,1.6.4,1.3-3.8,12.3-4-13.6,1.5-1.5H0l1.6,1.6,5.5,18.1h1Z"/>
  </g>
  <polygon class="st0" points="79.6 25.7 81.1 27.3 81.1 43.8 79.6 45.4 84.9 45.4 83.3 43.8 83.3 27.3 84.9 25.7 79.6 25.7"/>
</svg>